<?xml version="1.0" standalone="no"?>
<!DOCTYPE svg PUBLIC "-//W3C//DTD SVG 20010904//EN"
 "http://www.w3.org/TR/2001/REC-SVG-20010904/DTD/svg10.dtd">
<svg version="1.0" xmlns="http://www.w3.org/2000/svg"
 width="658.000000pt" height="658.000000pt" viewBox="0 0 658.000000 658.000000"
 preserveAspectRatio="xMidYMid meet">
<metadata>
Created by potrace 1.14, written by Peter Selinger 2001-2017
</metadata>
<g transform="translate(0.000000,658.000000) scale(0.100000,-0.100000)"
fill="#000000" stroke="none">
<path d="M3820 6558 c-19 -5 -42 -12 -50 -15 -8 -3 -23 -8 -32 -9 -23 -5 -129
-63 -169 -94 -30 -22 -72 -63 -128 -125 -38 -42 -71 -92 -64 -98 3 -4 2 -7 -4
-7 -15 0 -87 -155 -108 -230 -9 -36 -20 -72 -23 -80 -3 -8 -5 -30 -5 -47 -1
-22 -6 -33 -17 -34 -44 -3 -79 -7 -120 -13 -82 -13 -105 -16 -161 -27 -48 -10
-60 -9 -82 6 -14 9 -27 16 -29 15 -4 -2 -37 10 -75 26 -17 8 -33 14 -36 14 -3
0 -18 5 -34 11 -15 6 -30 11 -33 11 -3 0 -16 5 -30 10 -14 5 -32 11 -40 13
-23 6 -84 29 -90 35 -4 4 -291 102 -310 106 -3 0 -12 3 -20 6 -24 9 -161 50
-179 53 -9 2 -17 4 -18 5 -2 2 -6 3 -10 4 -5 1 -24 6 -43 11 -19 4 -44 9 -55
11 -11 1 -20 3 -20 4 0 2 -9 4 -20 6 -11 1 -31 5 -45 9 -23 5 -54 11 -120 19
-14 2 -41 7 -60 10 -19 4 -44 9 -55 11 -11 2 -20 4 -20 5 0 1 -11 3 -25 5 -14
1 -54 6 -90 10 -163 20 -263 -2 -313 -70 -36 -49 -70 -123 -83 -177 -1 -5 -2
-9 -4 -10 -3 -5 -14 -74 -25 -163 -22 -171 -22 -519 0 -740 2 -22 6 -74 10
-115 11 -130 13 -153 26 -236 l12 -81 -42 -86 c-22 -48 -41 -89 -41 -92 0 -3
-13 -34 -30 -68 -16 -35 -30 -69 -30 -74 0 -6 -9 -32 -21 -59 -51 -121 -50
-119 -103 -279 -25 -77 -63 -203 -85 -280 -22 -77 -52 -174 -66 -215 -15 -41
-30 -88 -35 -105 -4 -16 -20 -70 -35 -120 -14 -49 -29 -99 -31 -110 -3 -11 -7
-27 -9 -35 -2 -8 -4 -15 -5 -15 -1 0 -3 -11 -6 -25 -7 -41 -49 -167 -94 -285
-23 -60 -43 -118 -45 -127 -2 -9 -8 -25 -13 -35 -12 -23 -131 -373 -138 -404
-3 -13 -6 -33 -8 -45 -2 -11 -6 -25 -9 -30 -15 -25 -26 -238 -16 -308 13 -83
17 -98 46 -161 33 -71 43 -84 108 -150 97 -98 347 -296 465 -370 122 -76 200
-128 200 -136 0 -4 -8 -14 -18 -21 -43 -32 -96 -118 -120 -198 -13 -41 -14
-118 -1 -125 4 -3 6 -11 4 -18 -12 -32 119 -228 170 -256 11 -6 38 -25 60 -41
22 -16 57 -34 78 -40 32 -9 52 -30 29 -30 -9 0 -80 -68 -120 -115 -28 -33 -72
-113 -72 -131 0 -12 85 -14 491 -14 l490 0 -6 37 c-9 61 -54 141 -105 186 -38
34 -45 45 -34 55 7 6 18 12 23 12 13 0 107 52 131 72 10 9 28 22 39 28 12 6
18 16 15 22 -4 6 -3 8 3 5 6 -4 18 4 26 17 9 13 22 29 29 37 26 27 45 96 42
150 -5 70 -8 82 -40 156 -8 17 -14 36 -14 43 0 6 -4 8 -10 5 -5 -3 -10 1 -10
10 0 9 -11 27 -25 40 -13 14 -22 25 -19 25 3 0 -8 12 -25 26 -17 14 -31 31
-31 37 0 5 3 7 7 4 3 -4 17 0 31 9 13 9 21 11 17 4 -6 -9 -3 -9 14 -1 11 7 21
16 21 22 0 6 5 7 10 4 12 -7 90 25 90 37 0 4 3 7 8 6 7 -1 36 9 95 35 15 7 27
15 27 19 0 3 15 11 33 17 27 9 43 7 99 -13 36 -13 69 -22 72 -18 3 3 6 1 6 -5
0 -10 61 -28 88 -26 6 0 12 -3 12 -9 0 -5 4 -7 9 -3 5 3 13 0 16 -6 4 -6 -9
-25 -28 -42 -53 -48 -117 -129 -110 -140 3 -6 1 -7 -4 -4 -6 4 -14 1 -17 -6
-3 -6 -15 -25 -26 -42 -33 -52 -48 -79 -52 -100 -2 -12 -21 -29 -48 -42 -25
-13 -58 -32 -75 -43 -16 -11 -35 -22 -42 -26 -6 -3 -19 -17 -28 -31 -20 -31
-12 -91 16 -122 11 -11 16 -21 12 -21 -4 0 8 -16 27 -35 18 -19 38 -31 43 -28
6 3 7 2 4 -4 -9 -15 -31 -66 -32 -78 -1 -5 -7 -23 -14 -40 -6 -16 -15 -41 -20
-55 -5 -14 -13 -34 -17 -45 -4 -11 -8 -22 -8 -25 -1 -3 -5 -11 -9 -17 -5 -7
-6 -13 -2 -13 3 0 -1 -13 -10 -30 -8 -16 -15 -34 -15 -40 0 -7 356 -10 1156
-10 l1157 0 -7 33 c-7 30 -9 39 -21 87 -3 11 -7 30 -10 42 -2 12 -8 24 -12 27
-19 14 -6 53 25 81 19 16 35 37 37 47 4 27 -32 84 -102 160 -18 19 -33 43 -33
54 0 10 -4 19 -8 19 -5 0 -15 12 -23 28 -12 23 -43 74 -94 150 -29 44 -194
204 -204 198 -6 -4 -11 -1 -11 8 0 9 8 16 18 17 9 0 24 2 32 4 8 1 33 6 56 9
22 4 56 11 74 16 19 5 36 8 38 5 3 -3 11 0 19 6 7 6 13 9 13 6 0 -3 23 1 52 9
28 9 60 18 70 20 10 2 27 6 38 8 11 3 25 8 30 11 5 3 29 -7 53 -22 70 -46 81
-53 107 -64 14 -6 42 -20 62 -31 21 -10 40 -19 43 -19 2 0 26 -9 52 -20 l47
-20 -30 -18 c-16 -10 -42 -33 -57 -52 -15 -19 -31 -39 -37 -45 -5 -7 -7 -14
-4 -17 2 -2 -2 -10 -11 -17 -8 -7 -15 -18 -15 -25 0 -7 -7 -18 -15 -25 -8 -7
-12 -16 -9 -21 3 -5 2 -15 -3 -21 -24 -40 -22 -165 5 -218 21 -43 84 -120 98
-120 3 0 19 -11 36 -25 16 -14 36 -25 44 -25 8 0 14 -4 14 -9 0 -5 20 -17 45
-27 25 -9 48 -21 51 -25 3 -5 -14 -28 -38 -51 -37 -36 -88 -108 -88 -124 0 -2
207 -4 460 -4 l461 0 -12 21 c-6 12 -42 53 -80 91 -38 38 -69 71 -69 73 0 3 7
5 15 5 20 0 105 42 105 52 0 4 5 8 11 8 48 0 195 189 215 276 27 122 -11 239
-110 338 -53 53 -54 54 -31 64 28 13 152 92 329 211 269 180 327 277 328 551
1 145 -24 365 -58 510 -3 14 -7 35 -9 47 -2 11 -6 30 -9 41 -4 11 -9 33 -11
48 -10 64 -17 101 -25 134 -5 19 -12 52 -16 74 -3 21 -7 46 -9 55 -1 9 -10 54
-19 101 -16 87 -22 114 -32 153 -3 12 -7 33 -9 47 -6 37 -13 72 -19 100 -4 14
-8 39 -11 55 -2 17 -9 55 -15 85 -6 30 -13 66 -15 80 -5 28 -10 52 -25 125 -5
28 -12 61 -14 75 -3 14 -5 25 -6 25 -1 0 -3 7 -5 16 -1 10 -11 50 -20 90 -9
41 -19 85 -21 99 -3 13 -23 90 -46 170 -22 80 -41 150 -42 155 -1 6 -5 16 -9
23 -6 8 0 15 16 21 49 19 72 64 47 94 -5 7 -31 41 -57 77 -36 48 -55 66 -75
68 -33 4 -43 41 -34 123 21 196 26 685 12 1039 -7 172 -11 211 -32 360 -17
119 -80 334 -112 384 -34 51 -78 97 -86 89 -3 -4 -6 -2 -6 4 0 10 -82 50 -124
60 -89 20 -295 3 -451 -39 -22 -5 -47 -12 -55 -14 -108 -28 -356 -105 -395
-124 -28 -13 -99 -43 -105 -44 -3 -1 -11 -5 -17 -9 -7 -5 -13 -6 -13 -3 0 7
-272 -133 -291 -150 -8 -8 -21 -14 -27 -14 -7 0 -12 -4 -12 -10 0 -5 -5 -10
-11 -10 -13 0 -121 -70 -131 -85 -10 -14 -136 -10 -333 10 -16 2 -76 4 -133 4
l-103 1 5 28 c2 15 5 27 6 27 1 0 3 10 6 23 5 27 48 131 77 187 12 22 20 43
19 48 -1 4 2 7 8 7 5 0 10 5 10 10 0 6 16 36 35 66 19 30 35 57 35 59 0 9 54
69 121 135 53 52 81 71 142 95 71 28 75 31 53 42 -25 13 -94 13 -146 1z"/>
</g>
</svg>
